<?xml version="1.0" encoding="utf-8"?>
<!-- Generator: Adobe Illustrator 19.0.0, SVG Export Plug-In . SVG Version: 6.00 Build 0)  -->
<svg version="1.1" id="Layer_1" xmlns="http://www.w3.org/2000/svg" xmlns:xlink="http://www.w3.org/1999/xlink" x="0px" y="0px"
	 viewBox="0 0 790 1209.6" style="enable-background:new 0 0 790 1209.6;" xml:space="preserve">
<style type="text/css">
	.st0{fill:#FFFFFF;}
</style>
<g>
	<g>
		<path class="st0" d="M31.1,1191.1v-57.3h6.7v51.4h25.5v6H31.1z"/>
		<path class="st0" d="M91.2,1131.7c1.1,0,2,0.3,2.8,1c0.8,0.7,1.2,1.8,1.2,3.2c0,1.4-0.4,2.5-1.2,3.2c-0.8,0.7-1.7,1.1-2.8,1.1
			c-1.1,0-2.1-0.3-2.8-1.1c-0.7-0.7-1.1-1.8-1.1-3.2c0-1.5,0.4-2.5,1.1-3.2C89.1,1132.1,90.1,1131.7,91.2,1131.7z M94.4,1147.8v43
			h-6.5v-43H94.4z"/>
		<path class="st0" d="M135.4,1190.7l-16.3-43h7l9.5,26c0.6,1.8,1.3,3.7,2,5.9c0.7,2.1,1.1,3.9,1.4,5.2h0.3c0.3-1.3,0.8-3,1.6-5.2
			c0.7-2.2,1.4-4.1,2-5.9l9.4-26h7l-16.4,43H135.4z"/>
		<path class="st0" d="M202.2,1146.7c3.7,0,6.8,0.8,9.4,2.4c2.6,1.6,4.6,3.9,6,6.8c1.4,2.9,2.1,6.3,2.1,10.2v4H190
			c0.1,5,1.3,8.9,3.8,11.5c2.4,2.6,5.9,4,10.3,4c2.7,0,5.1-0.3,7.2-0.8c2.1-0.5,4.3-1.2,6.5-2.2v5.7c-2.2,1-4.3,1.7-6.4,2.1
			c-2.1,0.4-4.7,0.7-7.6,0.7c-4.1,0-7.7-0.8-10.8-2.5c-3.1-1.7-5.5-4.2-7.2-7.4s-2.5-7.3-2.5-12c0-4.6,0.8-8.6,2.3-12
			c1.5-3.4,3.8-6,6.6-7.8C195,1147.6,198.3,1146.7,202.2,1146.7z M202.1,1152.1c-3.5,0-6.3,1.1-8.3,3.4c-2.1,2.3-3.3,5.4-3.7,9.5
			h22.7c0-2.6-0.4-4.8-1.2-6.8c-0.8-2-1.9-3.5-3.5-4.6C206.6,1152.6,204.5,1152.1,202.1,1152.1z"/>
		<path class="st0" d="M308.4,1192.1h-6.7v-51.4h-18v-5.9h42.7v5.9h-18V1192.1z"/>
		<path class="st0" d="M356.8,1130.7v18.2c0,1,0,2.1-0.1,3.2c0,1.1-0.1,2-0.3,2.9h0.4c0.9-1.5,2-2.8,3.4-3.8s2.9-1.8,4.7-2.4
			c1.8-0.5,3.6-0.8,5.6-0.8c3.5,0,6.3,0.5,8.7,1.7c2.3,1.1,4,2.8,5.2,5.1c1.2,2.3,1.8,5.3,1.8,8.9v28h-6.4v-27.6
			c0-3.6-0.8-6.3-2.5-8c-1.6-1.8-4.1-2.7-7.5-2.7c-3.2,0-5.7,0.6-7.6,1.8c-1.9,1.2-3.3,3-4.1,5.3c-0.8,2.4-1.2,5.2-1.2,8.6v22.5
			h-6.5v-61H356.8z"/>
		<path class="st0" d="M429.1,1147.7c3.7,0,6.8,0.8,9.4,2.4c2.6,1.6,4.6,3.9,6,6.8c1.4,2.9,2.1,6.3,2.1,10.2v4h-29.7
			c0.1,5,1.3,8.9,3.8,11.5c2.4,2.6,5.9,4,10.3,4c2.7,0,5.1-0.3,7.2-0.8c2.1-0.5,4.3-1.2,6.5-2.2v5.7c-2.2,1-4.3,1.7-6.5,2.1
			c-2.1,0.4-4.6,0.7-7.5,0.7c-4.1,0-7.7-0.8-10.8-2.5c-3.1-1.7-5.5-4.2-7.2-7.4c-1.7-3.3-2.5-7.3-2.5-12c0-4.6,0.8-8.6,2.3-12
			c1.5-3.4,3.8-6,6.6-7.8C421.9,1148.6,425.3,1147.7,429.1,1147.7z M429.1,1153.1c-3.5,0-6.3,1.1-8.3,3.4c-2.1,2.3-3.3,5.4-3.7,9.5
			h22.7c0-2.6-0.4-4.8-1.2-6.8c-0.8-2-1.9-3.5-3.5-4.6S431.5,1153.1,429.1,1153.1z"/>
		<path class="st0" d="M538.1,1159.9h20v27.8c-3,1-6.1,1.8-9.3,2.3c-3.2,0.5-6.7,0.8-10.7,0.8c-6,0-11-1.2-15.1-3.6
			c-4.1-2.4-7.2-5.8-9.3-10.2c-2.1-4.4-3.2-9.6-3.2-15.7c0-5.9,1.2-11.1,3.5-15.5c2.3-4.4,5.7-7.8,10.2-10.3c4.4-2.4,9.8-3.7,16-3.7
			c3.2,0,6.2,0.3,9.1,0.9c2.9,0.6,5.5,1.4,8,2.5l-2.5,5.8c-2.1-0.9-4.5-1.7-7-2.3s-5.2-1-7.9-1c-4.7,0-8.7,1-12,2.9
			c-3.3,1.9-5.9,4.7-7.7,8.2s-2.7,7.7-2.7,12.6c0,4.8,0.8,8.9,2.3,12.5c1.5,3.5,4,6.3,7.2,8.3c3.3,2,7.5,2.9,12.6,2.9
			c2.6,0,4.8-0.2,6.7-0.4c1.9-0.3,3.5-0.7,5.1-1.1v-17.5h-13.4V1159.9z"/>
		<path class="st0" d="M601.3,1145.7c5.1,0,8.9,1.1,11.4,3.4s3.7,6,3.7,11v29.2h-4.8l-1.3-6.3h-0.3c-1.2,1.6-2.5,2.9-3.8,3.9
			c-1.3,1.1-2.8,1.9-4.5,2.4c-1.7,0.5-3.8,0.8-6.3,0.8c-2.6,0-4.9-0.5-7-1.4c-2-0.9-3.6-2.3-4.8-4.2c-1.2-1.9-1.7-4.2-1.7-7.1
			c0-4.3,1.7-7.6,5.1-9.9c3.4-2.3,8.6-3.6,15.5-3.8l7.4-0.3v-2.6c0-3.7-0.8-6.3-2.4-7.8s-3.8-2.2-6.7-2.2c-2.3,0-4.4,0.3-6.4,1
			c-2,0.7-4,1.4-5.8,2.3l-2-4.9c1.9-1,4.2-1.8,6.7-2.6C595.9,1146.1,598.6,1145.7,601.3,1145.7z M610,1168.2l-6.6,0.3
			c-5.4,0.2-9.1,1.1-11.3,2.6c-2.2,1.5-3.3,3.7-3.3,6.6c0,2.5,0.8,4.3,2.2,5.4c1.5,1.2,3.5,1.8,5.9,1.8c3.8,0,6.9-1.1,9.4-3.2
			s3.6-5.3,3.6-9.5L610,1168.2L610,1168.2z"/>
		<path class="st0" d="M687.2,1145.7c4.7,0,8.3,1.2,10.7,3.7c2.4,2.5,3.6,6.4,3.6,11.9v28.2h-6.4v-27.9c0-3.5-0.8-6.1-2.3-7.8
			s-3.7-2.6-6.7-2.6c-4.2,0-7.2,1.2-9.1,3.6s-2.8,5.9-2.8,10.6v24h-6.5v-27.9c0-2.3-0.3-4.3-1-5.8c-0.7-1.5-1.7-2.7-3-3.5
			c-1.3-0.8-3-1.2-5-1.2c-2.8,0-5.1,0.6-6.9,1.8c-1.7,1.2-3,2.9-3.8,5.2c-0.8,2.3-1.2,5.2-1.2,8.5v22.7h-6.5v-43h5.3l1,6.1h0.3
			c0.9-1.5,2-2.8,3.3-3.8c1.3-1,2.8-1.8,4.4-2.3s3.3-0.8,5.2-0.8c3.3,0,6,0.6,8.2,1.8c2.2,1.2,3.8,3.1,4.8,5.6h0.3
			c1.4-2.5,3.4-4.3,5.8-5.6C681.5,1146.3,684.2,1145.7,687.2,1145.7z"/>
		<path class="st0" d="M744.4,1145.7c3.7,0,6.8,0.8,9.4,2.4s4.6,3.9,6,6.8c1.4,2.9,2.1,6.3,2.1,10.2v4h-29.7c0.1,5,1.3,8.9,3.8,11.5
			c2.4,2.6,5.9,4,10.3,4c2.7,0,5.1-0.3,7.2-0.8c2.1-0.5,4.3-1.2,6.5-2.2v5.7c-2.2,1-4.3,1.7-6.4,2.1c-2.1,0.4-4.7,0.7-7.6,0.7
			c-4.1,0-7.7-0.8-10.8-2.5c-3.1-1.7-5.5-4.2-7.2-7.4c-1.7-3.3-2.6-7.3-2.6-12c0-4.6,0.8-8.6,2.3-12c1.5-3.4,3.8-6,6.6-7.8
			C737.2,1146.6,740.6,1145.7,744.4,1145.7z M744.3,1151.1c-3.5,0-6.3,1.1-8.3,3.4c-2.1,2.3-3.3,5.4-3.7,9.5h22.7
			c0-2.6-0.4-4.8-1.2-6.8c-0.8-2-1.9-3.5-3.5-4.6C748.8,1151.6,746.8,1151.1,744.3,1151.1z"/>
		<path class="st0" d="M119.9,1005.4c0,8.7-2.1,16.2-6.4,22.4c-4.2,6.3-10.3,11.1-18.2,14.4c-7.9,3.3-17.3,5-28.3,5
			c-5.3,0-10.4-0.3-15.3-0.9c-4.9-0.6-9.5-1.5-13.8-2.7c-4.3-1.2-8.3-2.6-11.9-4.3v-22.6c6,2.6,12.7,5,20,7.1
			c7.3,2.1,14.8,3.2,22.4,3.2c6.2,0,11.3-0.8,15.4-2.5c4.1-1.6,7.1-4,9.2-7c2-3,3-6.6,3-10.7c0-4.3-1.2-8-3.5-11
			c-2.3-3-5.9-5.7-10.6-8.3c-4.7-2.5-10.6-5.2-17.8-8.1c-4.8-1.9-9.4-4-13.7-6.5c-4.3-2.5-8.2-5.4-11.6-8.7
			c-3.4-3.3-6.1-7.3-8.1-11.9c-2-4.6-3-10-3-16.1c0-8.3,2-15.4,6-21.3c4-5.9,9.6-10.4,16.9-13.6c7.2-3.1,15.7-4.7,25.4-4.7
			c7.7,0,14.9,0.8,21.7,2.5c6.8,1.6,13.4,3.9,20,6.8l-7.6,19.4c-6.1-2.5-11.9-4.5-17.5-6c-5.6-1.5-11.3-2.3-17.2-2.3
			c-5.1,0-9.4,0.8-12.9,2.3c-3.5,1.5-6.2,3.7-8.1,6.5c-1.8,2.8-2.8,6.1-2.8,9.8c0,4.3,1.1,7.9,3.1,10.8c2.1,2.9,5.4,5.5,9.8,7.9
			c4.4,2.4,10.2,5.1,17.2,8c8.1,3.3,14.9,6.8,20.6,10.5c5.6,3.7,10,8.1,13,13.2C118.4,991.3,119.9,997.7,119.9,1005.4z"/>
		<path class="st0" d="M190,1028.1c3.1,0,6.1-0.3,9.1-0.8s5.7-1.3,8.2-2.1v17.8c-2.6,1.1-6,2.1-10.1,2.9c-4.1,0.8-8.4,1.2-12.9,1.2
			c-6.3,0-11.9-1.1-16.9-3.2c-5-2.1-9-5.7-11.9-10.9c-2.9-5.1-4.4-12.3-4.4-21.3v-59.5h-15.1v-10.5l16.2-8.4l7.7-23.7h14.8v24.6
			h31.7v18h-31.7v59.2c0,5.6,1.4,9.8,4.2,12.5C181.7,1026.8,185.4,1028.1,190,1028.1z"/>
		<path class="st0" d="M274,932.7c9.9,0,18.3,2,25.4,6.1s12.5,9.8,16.3,17.3c3.8,7.5,5.7,16.4,5.7,26.8v12.6h-74
			c0.3,10.8,3.1,19,8.7,24.8c5.5,5.8,13.2,8.7,23.2,8.7c7.1,0,13.4-0.7,19.1-2c5.6-1.4,11.5-3.4,17.5-6.1v19.1
			c-5.5,2.6-11.2,4.5-16.9,5.7c-5.7,1.2-12.6,1.8-20.6,1.8c-10.9,0-20.5-2.1-28.7-6.3c-8.3-4.2-14.7-10.5-19.3-18.9
			c-4.6-8.4-6.9-18.9-6.9-31.4c0-12.4,2.1-23,6.3-31.6c4.2-8.7,10.1-15.3,17.7-19.8C254.9,935,263.8,932.7,274,932.7z M274,950.5
			c-7.4,0-13.4,2.4-18,7.2c-4.6,4.8-7.3,11.8-8.1,21.1h50.3c-0.1-5.5-1-10.4-2.8-14.7c-1.8-4.2-4.4-7.6-8-10
			C284,951.7,279.5,950.5,274,950.5z"/>
		<path class="st0" d="M394.4,932.7c13.1,0,23.7,4.8,31.7,14.4c8,9.6,12,23.9,12,42.8c0,12.5-1.8,23.1-5.6,31.7
			c-3.7,8.6-8.9,15.1-15.5,19.4c-6.6,4.4-14.4,6.6-23.2,6.6c-5.6,0-10.5-0.7-14.6-2.1c-4.1-1.4-7.7-3.4-10.6-5.8
			c-2.9-2.4-5.4-5-7.4-7.7h-1.4c0.3,2.6,0.6,5.5,0.9,8.8c0.3,3.2,0.5,6.2,0.5,9v45h-23.7V934.8h19.3l3.3,15.3h1.1
			c2.1-3.1,4.6-6,7.6-8.7c3-2.7,6.6-4.8,10.8-6.4C383.7,933.5,388.7,932.7,394.4,932.7z M388.1,952c-6.5,0-11.7,1.3-15.6,3.8
			c-3.9,2.6-6.7,6.4-8.5,11.5c-1.8,5.1-2.7,11.5-2.9,19.3v3.3c0,8.2,0.9,15.2,2.5,20.9c1.7,5.7,4.5,10,8.5,13c4,3,9.4,4.5,16.2,4.5
			c5.7,0,10.4-1.6,14.2-4.7c3.8-3.1,6.6-7.6,8.5-13.4c1.9-5.8,2.8-12.7,2.8-20.5c0-11.9-2.1-21.2-6.3-27.8
			C403.3,955.3,396.8,952,388.1,952z"/>
		<path class="st0" d="M585,972c0,11.1-1.4,21.3-4.1,30.5c-2.7,9.2-6.8,17.2-12.3,23.8c-5.5,6.7-12.3,11.8-20.5,15.5
			c-8.2,3.7-17.7,5.5-28.6,5.5c-11,0-20.5-1.8-28.7-5.5c-8.2-3.7-15-8.9-20.5-15.6c-5.4-6.7-9.5-14.7-12.3-23.9
			c-2.7-9.2-4.1-19.4-4.1-30.6c0-14.8,2.5-27.9,7.6-39.1c5-11.3,12.5-20.1,22.3-26.4c9.8-6.3,22-9.5,36.5-9.5
			c13.9,0,25.6,3,35.3,9.1s17,14.7,21.9,25.9C582.5,943,585,956.4,585,972z M464.8,971.9c0,13.1,2,24.6,5.9,34.6
			c3.9,10,10,17.8,18.1,23.4c8.1,5.6,18.4,8.4,30.8,8.4c12.5,0,22.9-2.8,30.9-8.3c8.1-5.5,14-13.3,17.9-23.2s5.8-21.5,5.8-34.7
			c0-20.9-4.5-37.1-13.7-48.7c-9.1-11.5-22.5-17.3-40.3-17.3c-12.5,0-22.8,2.8-31.1,8.3c-8.2,5.5-14.4,13.3-18.4,23.1
			C466.8,947.4,464.8,958.8,464.8,971.9z"/>
		<path class="st0" d="M687,936.7v108.8h-8.2l-1.5-19.6h-0.6c-1.9,4-4.5,7.6-7.9,10.9c-3.4,3.3-7.6,5.9-12.5,7.8
			c-4.9,1.9-10.7,2.9-17.2,2.9c-8.3,0-15.3-1.4-21-4.3s-9.9-7.3-12.8-13.2s-4.3-13.2-4.3-22v-71.3h10.1v70.3c0,10.9,2.5,18.9,7.4,24
			c4.9,5.1,12.1,7.7,21.6,7.7c8,0,14.7-1.5,20.2-4.6c5.4-3.1,9.6-7.7,12.4-14s4.3-14,4.3-23.4v-60.1H687z"/>
		<path class="st0" d="M747.9,1039.1c3.1,0,6.1-0.2,8.8-0.7s5.1-1.1,7.2-1.8v8.4c-2.1,0.7-4.6,1.4-7.5,1.9c-2.9,0.6-6,0.9-9.5,0.9
			c-6.1,0-11.3-1.2-15.3-3.5c-4.1-2.3-7.1-5.8-9.2-10.5c-2.1-4.7-3.1-10.7-3.1-18v-70.5H703v-6l16.1-3.1l3.5-25.6h6.7v26.3h33.9v8.4
			h-33.9v69.9c0,7.8,1.5,13.7,4.3,17.8C736.6,1037.1,741.3,1039.1,747.9,1039.1z"/>
	</g>
	<g>
		<path class="st0" d="M233.6,312.3v-79.7c0-18.9,3.2-37,9.2-53.8c7.1-20,18-38.3,31.9-53.8c4-4.5,8.3-8.7,12.7-12.7
			c15.5-13.9,33.8-24.8,53.8-31.9c16.8-6,34.9-9.2,53.8-9.2c18.9,0,37,3.2,53.8,9.2c20,7.1,38.3,18,53.8,31.9
			c4.5,4,8.7,8.3,12.7,12.7c13.9,15.5,24.8,33.8,31.9,53.8c6,16.8,9.2,34.9,9.2,53.8v188.3l53.3,26.6l0.5-214.9
			c0-18.6-2.4-36.6-6.8-53.8c-4.9-19.1-12.4-37.1-22-53.8c-7.2-12.4-15.5-24-25-34.7c-5.9-6.8-12.3-13.1-19.1-19.1
			c-10.7-9.4-22.3-17.8-34.7-25c-16.6-9.6-34.7-17.1-53.8-22c-17.2-4.4-35.2-6.8-53.8-6.8c-18.6,0-36.6,2.4-53.8,6.8
			c-19.1,4.9-37.1,12.4-53.8,22c-12.4,7.2-24,15.5-34.7,25c-6.8,5.9-13.1,12.3-19.1,19.1c-9.4,10.7-17.8,22.3-25,34.7
			c-9.6,16.6-17.1,34.7-22,53.8c-4.4,17.2-6.8,35.2-6.8,53.8v106.6l376.3,189.2l0.2,80.7c0,18.9-3.2,37-9.2,53.8
			c-7.1,20-18,38.3-31.9,53.8c-4,4.5-8.3,8.7-12.7,12.7c-15.5,13.9-33.8,24.8-53.8,31.9c-16.8,6-34.9,9.2-53.8,9.2
			c-18.9,0-37-3.2-53.8-9.2c-20-7.1-38.3-18-53.8-31.9c-4.5-4-8.7-8.3-12.7-12.7c-13.9-15.5-24.8-33.8-31.9-53.8
			c-6-16.8-9.2-34.9-9.2-53.8V420.9l-53.8-26.9v215.2c0,18.6,2.4,36.6,6.8,53.8c4.9,19.1,12.4,37.1,22,53.8
			c7.2,12.4,15.5,24,25,34.7c5.9,6.8,12.3,13.1,19.1,19.1c10.7,9.4,22.3,17.8,34.7,25c16.6,9.6,34.7,17.1,53.8,22
			c17.2,4.4,35.2,6.8,53.8,6.8c18.6,0,36.6-2.4,53.8-6.8c19.1-4.9,37.1-12.4,53.8-22c12.4-7.2,24-15.5,34.7-25
			c6.8-5.9,13.1-12.3,19.1-19.1c9.4-10.7,17.8-22.3,25-34.7c9.6-16.6,17.1-34.7,22-53.8c4.4-17.2,6.8-35.2,6.8-53.8V501.5h-0.5
			L233.6,312.3z"/>
		<path class="st0" d="M287.4,447.8v161.3c0,19.6,5.2,37.9,14.4,53.8c9.4,16.3,23.1,30,39.4,39.4c15.8,9.1,34.2,14.4,53.8,14.4
			s37.9-5.2,53.8-14.4c16.3-9.4,30-23.1,39.4-39.4c9.1-15.8,14.4-34.2,14.4-53.8v-53.8h-0.5l-53.3-26.7v80.5
			c0,29.7-24.1,53.8-53.8,53.8c-29.7,0-53.8-24.1-53.8-53.8V474.8L287.4,447.8z"/>
		<path class="st0" d="M502.4,393.9h0.2V232.5c0-19.6-5.2-37.9-14.4-53.8c-9.4-16.3-23.1-30-39.4-39.4C433,130.2,414.6,125,395,125
			c-19.6,0-37.9,5.2-53.8,14.4c-16.3,9.4-30,23.1-39.4,39.4c-9.1,15.8-14.4,34.2-14.4,53.8v54l53.8,26.8v-80.9
			c0-29.7,24.1-53.8,53.8-53.8c29.7,0,53.8,24.1,53.8,53.8v134.6L502.4,393.9z"/>
	</g>
</g>
</svg>
